<svg width="24" height="24" viewBox="0 0 24 24" fill="none" xmlns="http://www.w3.org/2000/svg">
<path d="M23.703 6.32105L21.985 4.60305C21.603 4.22105 20.936 4.21905 20.553 4.60305L11.286 13.872L7.57499 10.161C7.17999 9.76605 6.53799 9.76605 6.14299 10.161L4.42499 11.879C4.23399 12.07 4.12799 12.324 4.12799 12.595C4.12799 12.866 4.23299 13.12 4.42499 13.312L10.468 19.355C10.687 19.574 10.977 19.694 11.286 19.694C11.595 19.694 11.886 19.574 12.104 19.355L23.704 7.75405C24.099 7.35905 24.098 6.71705 23.703 6.32105ZM11.396 18.647C11.344 18.7 11.227 18.7 11.174 18.647L5.13099 12.585L6.86699 10.867L10.932 14.931C11.12 15.119 11.452 15.119 11.639 14.931L21.278 5.30905L22.996 7.02705V7.04605L11.396 18.647Z" fill="black"/>
<path d="M6.339 19.354C6.558 19.573 6.848 19.693 7.157 19.693C7.466 19.693 7.757 19.573 7.975 19.354C8.17 19.159 8.17 18.842 7.975 18.647C7.78 18.452 7.463 18.452 7.268 18.647C7.216 18.7 7.099 18.7 7.046 18.647L1.003 12.585L2.721 10.867C2.726 10.862 2.735 10.862 2.739 10.867C2.934 11.062 3.251 11.062 3.446 10.867C3.641 10.672 3.641 10.355 3.446 10.16C3.052 9.76502 2.409 9.76502 2.014 10.16L0.297 11.878C0.105 12.069 0 12.324 0 12.595C0 12.866 0.105 13.121 0.297 13.312L6.339 19.354Z" fill="black"/>
<path d="M10.652 11.792L17.131 5.31099C17.136 5.30699 17.144 5.30399 17.15 5.31099C17.345 5.50599 17.662 5.50599 17.857 5.31099C18.052 5.11599 18.052 4.79899 17.857 4.60399C17.462 4.20899 16.82 4.20899 16.425 4.60399L9.94499 11.085C9.74999 11.28 9.74999 11.597 9.94499 11.792C10.043 11.89 10.171 11.938 10.299 11.938C10.427 11.938 10.554 11.89 10.652 11.792Z" fill="black"/>
</svg>
